<?xml version="1.0" standalone="no"?>
<!DOCTYPE svg PUBLIC "-//W3C//DTD SVG 20010904//EN"
 "http://www.w3.org/TR/2001/REC-SVG-20010904/DTD/svg10.dtd">
<svg version="1.0" xmlns="http://www.w3.org/2000/svg"
 width="448.000000pt" height="448.000000pt" viewBox="0 0 448.000000 448.000000"
 preserveAspectRatio="xMidYMid meet">
<metadata>
Created by potrace 1.14, written by Peter Selinger 2001-2017
</metadata>
<g transform="translate(0.000000,448.000000) scale(0.100000,-0.100000)"
fill="#000000" stroke="none">
<path d="M0 2240 l0 -2240 2240 0 2240 0 0 2240 0 2240 -2240 0 -2240 0 0
-2240z m2551 1633 c30 -6 25 -8 -45 -20 -174 -29 -290 -88 -407 -204 -164
-163 -205 -344 -119 -528 59 -126 150 -229 370 -419 80 -69 169 -148 199 -176
158 -150 211 -298 162 -455 -16 -52 -65 -151 -75 -151 -2 0 3 24 11 53 30 110
-3 234 -83 314 -45 45 -86 69 -271 159 -120 59 -254 130 -298 159 -97 64 -226
197 -278 285 -102 176 -122 388 -52 562 82 204 302 365 563 412 83 15 268 20
323 9z m-95 -240 c16 -11 38 -23 48 -27 16 -5 12 -10 -25 -29 -32 -16 -50 -34
-66 -65 l-22 -44 -14 35 c-16 36 -68 82 -102 89 -17 4 -14 7 15 20 42 18 75
52 90 93 l11 29 18 -40 c10 -23 32 -50 47 -61z m-708 13 c-117 -141 -158 -240
-166 -392 -10 -222 71 -403 261 -580 100 -93 186 -147 372 -233 286 -133 359
-189 391 -297 23 -81 5 -179 -47 -247 -12 -15 -14 -9 -11 47 4 77 -16 124 -79
180 -57 52 -128 81 -304 126 -333 85 -508 171 -647 318 -77 82 -119 152 -147
247 -61 202 -40 392 60 562 47 79 188 220 283 282 43 28 81 51 83 51 3 0 -19
-29 -49 -64z m1243 -523 c49 -253 49 -259 -21 -309 -73 -52 -83 -51 -102 4
-44 122 -121 192 -178 160 -78 -43 -62 -194 28 -268 58 -48 91 -49 180 -5 59
29 97 58 160 122 94 95 92 95 158 16 l41 -48 -17 -289 c-16 -254 -20 -291 -37
-315 -20 -25 -75 -51 -141 -66 -30 -6 -33 -5 -29 11 50 171 47 164 79 164 l31
0 -6 98 c-4 53 -7 135 -8 182 -1 76 -2 81 -12 50 -79 -264 -120 -354 -222
-488 -83 -109 -248 -278 -201 -206 67 103 90 226 62 333 -33 129 -109 231
-287 385 -160 140 -299 277 -299 295 0 25 125 184 192 245 34 31 85 67 112 81
105 50 254 53 359 7 l44 -20 29 60 c21 45 30 55 35 41 3 -10 26 -118 50 -240z
m-1677 -273 c10 -36 36 -103 59 -150 33 -68 58 -102 127 -170 138 -138 322
-231 600 -305 252 -67 348 -114 386 -187 25 -47 22 -114 -6 -168 l-24 -45 -6
42 c-13 89 -59 110 -281 128 -413 35 -664 135 -803 319 -66 88 -109 212 -127
374 -11 102 -1 233 28 356 l17 71 7 -100 c4 -55 14 -129 23 -165z m131 -686
c37 -28 170 -95 245 -124 131 -50 240 -71 425 -81 99 -5 196 -14 216 -19 84
-23 112 -109 51 -160 -46 -38 -99 -51 -208 -51 -282 1 -556 157 -756 431 -33
44 -28 45 27 4z m1022 -869 c51 -15 144 -71 150 -90 1 -5 -19 -34 -45 -64
l-48 -54 -47 34 c-41 28 -58 34 -117 37 -57 4 -75 0 -109 -19 -77 -43 -118
-138 -100 -234 32 -171 202 -229 347 -118 l34 25 44 -43 c24 -24 44 -48 44
-54 0 -21 -65 -74 -120 -98 -202 -91 -439 11 -501 215 -61 199 34 394 224 459
64 23 176 24 244 4z m-1095 -227 c3 -213 5 -236 23 -268 52 -88 187 -92 249
-7 20 27 21 44 24 268 l3 239 80 0 81 0 -4 -247 c-3 -243 -4 -249 -29 -303
-33 -70 -70 -106 -139 -138 -45 -21 -69 -25 -141 -25 -78 0 -95 3 -152 31 -44
22 -73 44 -92 71 -53 78 -58 108 -63 354 -2 125 -1 234 2 242 4 11 24 15 80
15 l75 0 3 -232z m1938 157 l0 -75 -185 0 -185 0 0 -70 0 -70 165 0 165 0 0
-70 0 -70 -165 0 -165 0 0 -135 0 -135 -80 0 -80 0 0 350 0 350 265 0 265 0 0
-75z"/>
</g>
</svg>
